<mxfile host="app.diagrams.net" modified="2020-11-16T06:27:56.264Z" agent="5.0 (X11)" etag="t-rYBrY09oPNMPUh30ei" version="13.9.9" type="github">
  <diagram id="v_OnPcMUxKcqbrQeODKX" name="Page-1">
    <mxGraphModel dx="798" dy="492" grid="1" gridSize="10" guides="1" tooltips="1" connect="1" arrows="1" fold="1" page="1" pageScale="1" pageWidth="827" pageHeight="1169" math="0" shadow="0">
      <root>
        <mxCell id="0" />
        <mxCell id="1" parent="0" />
        <mxCell id="wzeUZaDkVCDDPzkDgoVB-8" style="edgeStyle=orthogonalEdgeStyle;rounded=0;orthogonalLoop=1;jettySize=auto;html=1;entryX=0.5;entryY=0;entryDx=0;entryDy=0;" parent="1" source="wzeUZaDkVCDDPzkDgoVB-2" target="wzeUZaDkVCDDPzkDgoVB-4" edge="1">
          <mxGeometry relative="1" as="geometry" />
        </mxCell>
        <mxCell id="tKAzST4WF3AaA8PG3MqN-68" style="edgeStyle=orthogonalEdgeStyle;rounded=0;orthogonalLoop=1;jettySize=auto;html=1;" edge="1" parent="1" source="wzeUZaDkVCDDPzkDgoVB-2">
          <mxGeometry relative="1" as="geometry">
            <mxPoint x="690" y="85" as="targetPoint" />
          </mxGeometry>
        </mxCell>
        <mxCell id="wzeUZaDkVCDDPzkDgoVB-2" value="&lt;h2&gt;&lt;font face=&quot;Garamond&quot;&gt;&lt;span style=&quot;font-weight: normal&quot;&gt;Controle de Campeonato de Fórmula 1&lt;/span&gt;&lt;/font&gt;&lt;/h2&gt;" style="rounded=1;whiteSpace=wrap;html=1;fillColor=#CDA2BE;" parent="1" vertex="1">
          <mxGeometry x="270" y="60" width="370" height="50" as="geometry" />
        </mxCell>
        <mxCell id="wzeUZaDkVCDDPzkDgoVB-4" value="Autódromo" style="swimlane;fillColor=#CDA2BE;" parent="1" vertex="1">
          <mxGeometry x="40" y="160" width="200" height="200" as="geometry" />
        </mxCell>
        <mxCell id="wzeUZaDkVCDDPzkDgoVB-6" value="&lt;div style=&quot;font-size: 13px&quot;&gt;&lt;font style=&quot;font-size: 13px&quot;&gt;+ Nome: String&lt;br&gt;&lt;/font&gt;&lt;/div&gt;&lt;div style=&quot;font-size: 13px&quot;&gt;&lt;font style=&quot;font-size: 13px&quot;&gt;&lt;br&gt;&lt;/font&gt;&lt;/div&gt;&lt;div style=&quot;font-size: 13px&quot;&gt;&lt;font style=&quot;font-size: 13px&quot;&gt;+ Quilometragem:&amp;nbsp; double&lt;/font&gt;&lt;/div&gt;&lt;div style=&quot;font-size: 13px&quot;&gt;&lt;font style=&quot;font-size: 13px&quot;&gt;&lt;br&gt;&lt;/font&gt;&lt;/div&gt;&lt;div style=&quot;font-size: 13px&quot;&gt;&lt;font style=&quot;font-size: 13px&quot;&gt;+ TipoDeCircuito: String&lt;/font&gt;&lt;/div&gt;&lt;div style=&quot;font-size: 13px&quot;&gt;&lt;font style=&quot;font-size: 13px&quot;&gt;&lt;br&gt;&lt;/font&gt;&lt;/div&gt;&lt;div style=&quot;font-size: 13px&quot;&gt;&lt;font style=&quot;font-size: 13px&quot;&gt;+ QtdPessoasArquibancadas: int&lt;/font&gt;&lt;/div&gt;&lt;div style=&quot;font-size: 13px&quot;&gt;&lt;font style=&quot;font-size: 13px&quot;&gt;&lt;br&gt;&lt;/font&gt;&lt;/div&gt;&lt;div style=&quot;font-size: 13px&quot;&gt;&lt;font style=&quot;font-size: 13px&quot;&gt;+ AreaDeDerrapagem: double&lt;br&gt;&lt;/font&gt;&lt;/div&gt;" style="text;html=1;align=center;verticalAlign=middle;resizable=0;points=[];autosize=1;" parent="wzeUZaDkVCDDPzkDgoVB-4" vertex="1">
          <mxGeometry y="35" width="200" height="130" as="geometry" />
        </mxCell>
        <mxCell id="wzeUZaDkVCDDPzkDgoVB-9" value="Temporada" style="swimlane;fillColor=#CDA2BE;" parent="1" vertex="1">
          <mxGeometry x="60" y="420" width="200" height="200" as="geometry" />
        </mxCell>
        <mxCell id="wzeUZaDkVCDDPzkDgoVB-10" value="&lt;div&gt;+ DataInicial : DataTime&lt;/div&gt;&lt;div&gt;&lt;br&gt;&lt;/div&gt;&lt;div&gt;+ DataEncerramento: DataTime&lt;/div&gt;&lt;div&gt;&lt;br&gt;&lt;/div&gt;&lt;div&gt;+ PresentesNosAnos: int&lt;/div&gt;&lt;div&gt;&lt;br&gt;&lt;/div&gt;&lt;div&gt;+ PlacarAtual: String&lt;br&gt;&lt;/div&gt;" style="text;html=1;align=center;verticalAlign=middle;resizable=0;points=[];autosize=1;" parent="wzeUZaDkVCDDPzkDgoVB-9" vertex="1">
          <mxGeometry x="10" y="50" width="180" height="100" as="geometry" />
        </mxCell>
        <mxCell id="wzeUZaDkVCDDPzkDgoVB-11" value="Piloto" style="swimlane;fillColor=#CDA2BE;" parent="1" vertex="1">
          <mxGeometry x="610" y="180" width="200" height="140" as="geometry" />
        </mxCell>
        <mxCell id="wzeUZaDkVCDDPzkDgoVB-18" value="&lt;div&gt;+ Títulos: String&lt;/div&gt;&lt;div&gt;&lt;br&gt;&lt;/div&gt;&lt;div&gt;+ Colocação: int&lt;/div&gt;&lt;div&gt;&lt;br&gt;&lt;/div&gt;&lt;div&gt;+ TipoSanguínio: String&lt;/div&gt;&lt;div&gt;&lt;br&gt;&lt;/div&gt;&lt;div&gt;+ CondicoesMedicas: String&lt;br&gt;&lt;/div&gt;" style="text;html=1;align=center;verticalAlign=middle;resizable=0;points=[];autosize=1;" parent="wzeUZaDkVCDDPzkDgoVB-11" vertex="1">
          <mxGeometry x="15" y="30" width="170" height="100" as="geometry" />
        </mxCell>
        <mxCell id="wzeUZaDkVCDDPzkDgoVB-13" value="Pessoa" style="swimlane;fillColor=#CDA2BE;" parent="1" vertex="1">
          <mxGeometry x="360" y="130" width="150" height="260" as="geometry" />
        </mxCell>
        <mxCell id="wzeUZaDkVCDDPzkDgoVB-14" value="&lt;div&gt;+ Nome: String&lt;/div&gt;&lt;div&gt;&lt;br&gt;&lt;/div&gt;&lt;div&gt;+ Idade: int&lt;/div&gt;&lt;div&gt;&lt;br&gt;&lt;/div&gt;&lt;div&gt;+ CPF: int&lt;/div&gt;&lt;div&gt;&lt;br&gt;&lt;/div&gt;&lt;div&gt;+ Rua: String&lt;/div&gt;&lt;div&gt;&lt;br&gt;&lt;/div&gt;&lt;div&gt;+ NúmeroResidência; int&lt;/div&gt;&lt;div&gt;&lt;br&gt;&lt;/div&gt;&lt;div&gt;+ Cidade: String&lt;/div&gt;&lt;div&gt;&lt;br&gt;&lt;/div&gt;&lt;div&gt;+ Estado: String&lt;/div&gt;&lt;div&gt;&lt;br&gt;&lt;/div&gt;&lt;div&gt;+ País: String&lt;br&gt;&lt;/div&gt;&lt;div&gt;&lt;br&gt;&lt;/div&gt;&lt;div&gt;&lt;br&gt;&lt;/div&gt;" style="text;html=1;align=center;verticalAlign=middle;resizable=0;points=[];autosize=1;" parent="wzeUZaDkVCDDPzkDgoVB-13" vertex="1">
          <mxGeometry y="35" width="150" height="240" as="geometry" />
        </mxCell>
        <mxCell id="wzeUZaDkVCDDPzkDgoVB-19" value="Técnicos" style="swimlane;fillColor=#CDA2BE;" parent="1" vertex="1">
          <mxGeometry x="610" y="340" width="200" height="85" as="geometry" />
        </mxCell>
        <mxCell id="wzeUZaDkVCDDPzkDgoVB-20" value="&lt;div&gt;+ Especialização: String&lt;br&gt;&lt;/div&gt;&lt;div&gt;&lt;br&gt;&lt;/div&gt;&lt;div&gt;+ Funcoes: String&lt;br&gt;&lt;/div&gt;" style="text;html=1;align=center;verticalAlign=middle;resizable=0;points=[];autosize=1;" parent="wzeUZaDkVCDDPzkDgoVB-19" vertex="1">
          <mxGeometry x="30" y="35" width="140" height="50" as="geometry" />
        </mxCell>
        <mxCell id="wzeUZaDkVCDDPzkDgoVB-21" value="Mecanicos" style="swimlane;fillColor=#CDA2BE;" parent="1" vertex="1">
          <mxGeometry x="610" y="440" width="200" height="50" as="geometry" />
        </mxCell>
        <mxCell id="wzeUZaDkVCDDPzkDgoVB-22" value="&lt;div&gt;+ Funcao: String&lt;br&gt;&lt;/div&gt;" style="text;html=1;align=center;verticalAlign=middle;resizable=0;points=[];autosize=1;" parent="wzeUZaDkVCDDPzkDgoVB-21" vertex="1">
          <mxGeometry x="50" y="30" width="100" height="20" as="geometry" />
        </mxCell>
        <mxCell id="tKAzST4WF3AaA8PG3MqN-2" value="Equipes" style="swimlane;fillColor=#CDA2BE;startSize=23;" vertex="1" parent="1">
          <mxGeometry x="330" y="650" width="200" height="60" as="geometry" />
        </mxCell>
        <mxCell id="tKAzST4WF3AaA8PG3MqN-3" value="&lt;div&gt;+ Nome: String&lt;/div&gt;&lt;div&gt;&lt;br&gt;&lt;/div&gt;&lt;div&gt;&lt;br&gt;&lt;/div&gt;" style="text;html=1;align=center;verticalAlign=middle;resizable=0;points=[];autosize=1;" vertex="1" parent="tKAzST4WF3AaA8PG3MqN-2">
          <mxGeometry x="55" y="30" width="100" height="50" as="geometry" />
        </mxCell>
        <mxCell id="tKAzST4WF3AaA8PG3MqN-6" value="Fornecedores" style="swimlane;fillColor=#CDA2BE;" vertex="1" parent="1">
          <mxGeometry x="610" y="510" width="200" height="120" as="geometry" />
        </mxCell>
        <mxCell id="tKAzST4WF3AaA8PG3MqN-7" value="&lt;div&gt;+ Empresa: String&lt;/div&gt;&lt;div&gt;&lt;br&gt;&lt;/div&gt;&lt;div&gt;+ Material: String&lt;/div&gt;&lt;div&gt;&lt;br&gt;&lt;/div&gt;&lt;div&gt;+QtdProduto: int&lt;br&gt;&lt;/div&gt;" style="text;html=1;align=center;verticalAlign=middle;resizable=0;points=[];autosize=1;" vertex="1" parent="tKAzST4WF3AaA8PG3MqN-6">
          <mxGeometry x="50" y="35" width="110" height="80" as="geometry" />
        </mxCell>
        <mxCell id="tKAzST4WF3AaA8PG3MqN-59" value="0.*" style="endArrow=open;html=1;endSize=12;startArrow=diamondThin;startSize=14;startFill=1;edgeStyle=orthogonalEdgeStyle;align=left;verticalAlign=bottom;entryX=0;entryY=0.25;entryDx=0;entryDy=0;" edge="1" parent="tKAzST4WF3AaA8PG3MqN-6" target="tKAzST4WF3AaA8PG3MqN-8">
          <mxGeometry x="-0.4" y="20" relative="1" as="geometry">
            <mxPoint y="50" as="sourcePoint" />
            <mxPoint x="230" y="170" as="targetPoint" />
            <Array as="points">
              <mxPoint x="-40" y="170" />
            </Array>
            <mxPoint as="offset" />
          </mxGeometry>
        </mxCell>
        <mxCell id="tKAzST4WF3AaA8PG3MqN-8" value="Carro" style="swimlane;fillColor=#CDA2BE;" vertex="1" parent="1">
          <mxGeometry x="610" y="650" width="200" height="120" as="geometry" />
        </mxCell>
        <mxCell id="tKAzST4WF3AaA8PG3MqN-9" value="&lt;div&gt;+ Modelo: String&lt;/div&gt;&lt;div&gt;&lt;br&gt;&lt;/div&gt;&lt;div&gt;+ Construtora: String&lt;/div&gt;&lt;div&gt;&lt;br&gt;&lt;/div&gt;&lt;div&gt;+ Patrocinado: String&lt;/div&gt;&lt;div&gt;&lt;br&gt;&lt;/div&gt;&lt;div&gt;&lt;br&gt;&lt;/div&gt;" style="text;html=1;align=center;verticalAlign=middle;resizable=0;points=[];autosize=1;" vertex="1" parent="tKAzST4WF3AaA8PG3MqN-8">
          <mxGeometry x="35" y="30" width="130" height="100" as="geometry" />
        </mxCell>
        <mxCell id="tKAzST4WF3AaA8PG3MqN-35" value="4" style="endArrow=open;html=1;endSize=12;startArrow=diamondThin;startSize=14;startFill=1;edgeStyle=orthogonalEdgeStyle;align=left;verticalAlign=bottom;exitX=0.33;exitY=-0.009;exitDx=0;exitDy=0;exitPerimeter=0;" edge="1" parent="tKAzST4WF3AaA8PG3MqN-8" source="tKAzST4WF3AaA8PG3MqN-25">
          <mxGeometry x="-0.949" y="26" relative="1" as="geometry">
            <mxPoint x="-80" y="130" as="sourcePoint" />
            <mxPoint y="110" as="targetPoint" />
            <Array as="points">
              <mxPoint x="-24" y="110" />
            </Array>
            <mxPoint as="offset" />
          </mxGeometry>
        </mxCell>
        <mxCell id="tKAzST4WF3AaA8PG3MqN-10" value="Mecânica" style="swimlane;fillColor=#CDA2BE;" vertex="1" parent="1">
          <mxGeometry x="50" y="680" width="200" height="240" as="geometry" />
        </mxCell>
        <mxCell id="tKAzST4WF3AaA8PG3MqN-11" value="&lt;br&gt;&lt;div&gt;&lt;br&gt;&lt;/div&gt;&lt;div&gt;+ Componentes: String&lt;/div&gt;&lt;div&gt;&lt;br&gt;&lt;/div&gt;&lt;div&gt;+ Freio: String&lt;/div&gt;&lt;div&gt;&lt;br&gt;&lt;/div&gt;&lt;div&gt;+ GasolinaConsumida: double&lt;/div&gt;&lt;div&gt;&lt;br&gt;&lt;/div&gt;&lt;div&gt;+ Parafusos: double&lt;/div&gt;&lt;div&gt;&lt;br&gt;&lt;/div&gt;&lt;div&gt;+ TiposAssento: String&lt;/div&gt;&lt;div&gt;&lt;br&gt;&lt;/div&gt;&lt;div&gt;+ Capacete: String&lt;/div&gt;&lt;div&gt;&lt;br&gt;&lt;/div&gt;&lt;div&gt;+ TempoDeManuntenção: double&lt;br&gt;&lt;/div&gt;" style="text;html=1;align=center;verticalAlign=middle;resizable=0;points=[];autosize=1;" vertex="1" parent="tKAzST4WF3AaA8PG3MqN-10">
          <mxGeometry y="10" width="190" height="220" as="geometry" />
        </mxCell>
        <mxCell id="tKAzST4WF3AaA8PG3MqN-12" value="Corrida" style="swimlane;fillColor=#CDA2BE;" vertex="1" parent="1">
          <mxGeometry x="320" y="420" width="210" height="190" as="geometry" />
        </mxCell>
        <mxCell id="tKAzST4WF3AaA8PG3MqN-13" value="&lt;div&gt;+ Equipes: list&lt;br&gt;&lt;/div&gt;&lt;div&gt;&lt;br&gt;&lt;/div&gt;&lt;div&gt;+ Duracao: double&lt;/div&gt;&lt;div&gt;&lt;br&gt;&lt;/div&gt;&lt;div&gt;+ TempoParadasManutencao: double &lt;br&gt;&lt;/div&gt;&lt;div&gt;&lt;br&gt;&lt;/div&gt;&lt;div&gt;+ VelocidadeMediaPorEquipe: double&lt;/div&gt;&lt;div&gt;&lt;br&gt;&lt;/div&gt;&lt;br&gt;&lt;div&gt;&lt;br&gt;&lt;/div&gt;" style="text;html=1;align=center;verticalAlign=middle;resizable=0;points=[];autosize=1;" vertex="1" parent="tKAzST4WF3AaA8PG3MqN-12">
          <mxGeometry x="-2.5" y="40" width="220" height="150" as="geometry" />
        </mxCell>
        <mxCell id="tKAzST4WF3AaA8PG3MqN-23" value="Motor" style="swimlane;fillColor=#CDA2BE;startSize=23;" vertex="1" parent="1">
          <mxGeometry x="280" y="800" width="200" height="65" as="geometry" />
        </mxCell>
        <mxCell id="tKAzST4WF3AaA8PG3MqN-24" value="+ Potência: double" style="text;html=1;align=center;verticalAlign=middle;resizable=0;points=[];autosize=1;" vertex="1" parent="tKAzST4WF3AaA8PG3MqN-23">
          <mxGeometry x="50" y="40" width="110" height="20" as="geometry" />
        </mxCell>
        <mxCell id="tKAzST4WF3AaA8PG3MqN-25" value="Pneu" style="swimlane;fillColor=#CDA2BE;startSize=23;" vertex="1" parent="1">
          <mxGeometry x="520" y="800" width="200" height="110" as="geometry" />
        </mxCell>
        <mxCell id="tKAzST4WF3AaA8PG3MqN-26" value="&lt;div&gt;+ Material: String&lt;/div&gt;&lt;div&gt;&lt;br&gt;&lt;/div&gt;&lt;div&gt;+ Camara: double&lt;/div&gt;&lt;div&gt;&lt;br&gt;&lt;/div&gt;&lt;div&gt;+ Arco: double&lt;br&gt;&lt;/div&gt;" style="text;html=1;align=center;verticalAlign=middle;resizable=0;points=[];autosize=1;" vertex="1" parent="tKAzST4WF3AaA8PG3MqN-25">
          <mxGeometry x="50" y="30" width="110" height="80" as="geometry" />
        </mxCell>
        <mxCell id="tKAzST4WF3AaA8PG3MqN-32" value="0.*" style="endArrow=open;html=1;endSize=12;startArrow=diamondThin;startSize=14;startFill=1;edgeStyle=orthogonalEdgeStyle;align=left;verticalAlign=bottom;" edge="1" parent="1">
          <mxGeometry x="-1" y="3" relative="1" as="geometry">
            <mxPoint x="250" y="720" as="sourcePoint" />
            <mxPoint x="610" y="720" as="targetPoint" />
          </mxGeometry>
        </mxCell>
        <mxCell id="tKAzST4WF3AaA8PG3MqN-38" value="1" style="endArrow=open;html=1;endSize=12;startArrow=diamondThin;startSize=14;startFill=1;edgeStyle=orthogonalEdgeStyle;align=left;verticalAlign=bottom;exitX=0.33;exitY=-0.009;exitDx=0;exitDy=0;exitPerimeter=0;entryX=0;entryY=0.75;entryDx=0;entryDy=0;" edge="1" parent="1" target="tKAzST4WF3AaA8PG3MqN-8">
          <mxGeometry x="-0.949" y="26" relative="1" as="geometry">
            <mxPoint x="402" y="800" as="sourcePoint" />
            <mxPoint x="570" y="730" as="targetPoint" />
            <Array as="points">
              <mxPoint x="402" y="750" />
              <mxPoint x="570" y="750" />
              <mxPoint x="570" y="740" />
            </Array>
            <mxPoint as="offset" />
          </mxGeometry>
        </mxCell>
        <mxCell id="tKAzST4WF3AaA8PG3MqN-49" value="" style="endArrow=block;endSize=16;endFill=0;html=1;" edge="1" parent="1">
          <mxGeometry width="160" relative="1" as="geometry">
            <mxPoint x="520" y="900" as="sourcePoint" />
            <mxPoint x="250" y="900" as="targetPoint" />
          </mxGeometry>
        </mxCell>
        <mxCell id="tKAzST4WF3AaA8PG3MqN-50" value="" style="endArrow=block;endSize=16;endFill=0;html=1;exitX=0.325;exitY=0;exitDx=0;exitDy=0;exitPerimeter=0;" edge="1" parent="1" source="tKAzST4WF3AaA8PG3MqN-23">
          <mxGeometry width="160" relative="1" as="geometry">
            <mxPoint x="340" y="770" as="sourcePoint" />
            <mxPoint x="250" y="750" as="targetPoint" />
            <Array as="points">
              <mxPoint x="345" y="750" />
            </Array>
          </mxGeometry>
        </mxCell>
        <mxCell id="tKAzST4WF3AaA8PG3MqN-53" value="" style="endArrow=block;endSize=16;endFill=0;html=1;" edge="1" parent="1">
          <mxGeometry width="160" relative="1" as="geometry">
            <mxPoint x="610" y="240" as="sourcePoint" />
            <mxPoint x="510" y="220" as="targetPoint" />
            <Array as="points">
              <mxPoint x="580" y="240" />
              <mxPoint x="580" y="220" />
            </Array>
          </mxGeometry>
        </mxCell>
        <mxCell id="tKAzST4WF3AaA8PG3MqN-54" value="" style="endArrow=block;endSize=16;endFill=0;html=1;" edge="1" parent="1">
          <mxGeometry width="160" relative="1" as="geometry">
            <mxPoint x="610" y="390" as="sourcePoint" />
            <mxPoint x="510" y="280" as="targetPoint" />
            <Array as="points">
              <mxPoint x="580" y="390" />
              <mxPoint x="580" y="280" />
            </Array>
          </mxGeometry>
        </mxCell>
        <mxCell id="tKAzST4WF3AaA8PG3MqN-55" value="" style="endArrow=block;endSize=16;endFill=0;html=1;exitX=0;exitY=0.5;exitDx=0;exitDy=0;" edge="1" parent="1" source="wzeUZaDkVCDDPzkDgoVB-21">
          <mxGeometry width="160" relative="1" as="geometry">
            <mxPoint x="600" y="460" as="sourcePoint" />
            <mxPoint x="510" y="340" as="targetPoint" />
            <Array as="points">
              <mxPoint x="570" y="465" />
              <mxPoint x="570" y="370" />
              <mxPoint x="570" y="340" />
            </Array>
          </mxGeometry>
        </mxCell>
        <mxCell id="tKAzST4WF3AaA8PG3MqN-61" value="1.*" style="endArrow=open;html=1;endSize=12;startArrow=diamondThin;startSize=14;startFill=0;edgeStyle=orthogonalEdgeStyle;align=left;verticalAlign=bottom;" edge="1" parent="1" source="tKAzST4WF3AaA8PG3MqN-2">
          <mxGeometry x="-1" y="19" relative="1" as="geometry">
            <mxPoint x="320" y="590" as="sourcePoint" />
            <mxPoint x="480" y="610" as="targetPoint" />
            <Array as="points">
              <mxPoint x="439" y="630" />
              <mxPoint x="480" y="630" />
            </Array>
            <mxPoint as="offset" />
          </mxGeometry>
        </mxCell>
        <mxCell id="tKAzST4WF3AaA8PG3MqN-62" value="" style="endArrow=block;endSize=16;endFill=0;html=1;" edge="1" parent="1">
          <mxGeometry width="160" relative="1" as="geometry">
            <mxPoint x="310" y="535" as="sourcePoint" />
            <mxPoint x="260" y="535" as="targetPoint" />
            <Array as="points">
              <mxPoint x="320" y="535" />
            </Array>
          </mxGeometry>
        </mxCell>
        <mxCell id="tKAzST4WF3AaA8PG3MqN-63" value="1" style="endArrow=open;html=1;endSize=12;startArrow=diamondThin;startSize=14;startFill=0;edgeStyle=orthogonalEdgeStyle;align=left;verticalAlign=bottom;exitX=1;exitY=0.469;exitDx=0;exitDy=0;exitPerimeter=0;entryX=0.011;entryY=0.067;entryDx=0;entryDy=0;entryPerimeter=0;" edge="1" parent="1" source="wzeUZaDkVCDDPzkDgoVB-6" target="tKAzST4WF3AaA8PG3MqN-13">
          <mxGeometry x="-1" y="19" relative="1" as="geometry">
            <mxPoint x="270" y="280" as="sourcePoint" />
            <mxPoint x="360" y="410" as="targetPoint" />
            <Array as="points">
              <mxPoint x="250" y="256" />
              <mxPoint x="250" y="260" />
              <mxPoint x="290" y="260" />
              <mxPoint x="290" y="470" />
            </Array>
            <mxPoint as="offset" />
          </mxGeometry>
        </mxCell>
        <mxCell id="tKAzST4WF3AaA8PG3MqN-67" value="" style="endArrow=block;endSize=16;endFill=0;html=1;" edge="1" parent="1">
          <mxGeometry width="160" relative="1" as="geometry">
            <mxPoint x="510" y="370" as="sourcePoint" />
            <mxPoint x="530" y="680" as="targetPoint" />
            <Array as="points">
              <mxPoint x="560" y="370" />
              <mxPoint x="560" y="680" />
            </Array>
          </mxGeometry>
        </mxCell>
        <mxCell id="tKAzST4WF3AaA8PG3MqN-69" value="Clara Letícia Santos Pessoa - 2° RDC" style="shape=ext;double=1;rounded=0;whiteSpace=wrap;html=1;" vertex="1" parent="1">
          <mxGeometry x="690" y="45" width="120" height="80" as="geometry" />
        </mxCell>
      </root>
    </mxGraphModel>
  </diagram>
</mxfile>
